<svg id="Capa_1" enable-background="new 0 0 511.691 511.691" height="512" viewBox="0 0 511.691 511.691" width="512" xmlns="http://www.w3.org/2000/svg"><g><g><path d="m180.118 381.096h-36.485v48.399c0 2.897 2.348 5.245 5.245 5.245h25.995c2.897 0 5.245-2.348 5.245-5.245z" fill="#d7d0d6"/><g fill="#f9f7f8"><path d="m221.679 326.895-104.754-39.437-20.504 10.772v45.17l15.574 19.851 83.187 30.194 27.909 2.775c2.71-1.64 4.51-4.61 4.51-8.01v-36.55z"/><path d="m218.384 244.431-104.592-39.037-17.371 9.926v45.17l12.484 16.52 108.305 46.962 10.391-10.052v-45.17z"/><path d="m179.581 131.113-83.16 22.988v23.489l30.199 33.598 84.387 35.989 16.594-16.157v-76.083z"/></g><path d="m227.601 154.937-48.02-23.824-83.16 22.988v23.489 82.9l12.484 16.52 24.991 10.836 1.08-73.433c.182-12.387 10.276-22.334 22.665-22.334h69.961v-37.142z" fill="#efedef"/><path d="m243.298 172.08h-162.576c-6.409 0-9.858-7.527-5.672-12.381l81.288-94.254c2.988-3.464 8.356-3.464 11.343 0l81.288 94.254c4.186 4.853.738 12.381-5.671 12.381z" fill="#fd8087"/><path d="m244.416 154.419h-109.759c-10.767 0-16.56-12.645-9.528-20.799l50.675-58.758-8.122-9.418c-2.988-3.464-8.356-3.464-11.343 0l-81.289 94.255c-4.186 4.854-.738 12.381 5.672 12.381h162.576c6.409 0 9.858-7.527 5.672-12.381z" fill="#fe646f"/><g id="XMLID_179_"><g><path d="m227.601 313.92v37.74l-131.18-53.43v-37.74z" fill="#fd8087"/><path d="m227.601 231.02v37.73l-131.18-53.43v-37.73z" fill="#fd8087"/><path d="m134.733 230.925.243-16.511c.105-7.146 3.513-13.475 8.752-17.555l-47.307-19.269v37.73z" fill="#fe646f"/><path d="m133.896 293.847-16.971-6.389-20.504 10.772v45.17l15.574 19.851 21.901 7.949z" fill="#efedef"/><path d="m223.091 395.254c-1.42.86-3.08 1.36-4.86 1.36h-112.45c-5.17 0-9.36-4.19-9.36-9.37v-44.81z" fill="#fd8087"/></g></g><path d="m335.353 271.548-104.754-39.437-20.503 10.772v45.17l15.574 19.851 83.187 30.194 27.909 2.775c2.71-1.64 4.51-4.61 4.51-8.01v-36.55z" fill="#f9f7f8"/><path d="m332.058 189.084-104.592-39.037-17.371 9.926v45.17l12.484 16.52 108.305 46.962 10.391-10.052v-45.17z" fill="#f9f7f8"/><path d="m293.255 75.766-83.16 22.988v23.489l30.199 33.598 84.386 35.989 16.595-16.157v-76.083z" fill="#f9f7f8"/><g><path d="m341.275 99.59-48.02-23.824-83.16 22.988v106.389l12.484 16.52 23.09 10.012v-77.308c0-9.739 7.895-17.635 17.635-17.635h77.971z" fill="#efedef"/><path d="m356.971 116.733h-162.576c-6.409 0-9.858-7.527-5.672-12.381l81.288-94.254c2.988-3.464 8.356-3.464 11.343 0l81.288 94.254c4.187 4.853.739 12.381-5.671 12.381z" fill="#bbec6c"/><path d="m354.906 95.381h-91.775c-13.242 0-20.366-15.552-11.718-25.58l40.716-47.21-10.775-12.494c-2.988-3.464-8.356-3.464-11.343 0l-81.288 94.254c-4.186 4.854-.738 12.381 5.672 12.381h162.576c6.409 0 9.858-7.527 5.672-12.381z" fill="#a2e62e"/><path d="m293.926 330.233h-36.486v41.399c0 2.897 2.348 5.245 5.245 5.245h25.995c2.897 0 5.245-2.348 5.245-5.245v-41.399z" fill="#d7d0d6"/><g id="XMLID_178_"><g><g><path d="m245.669 237.785-15.071-5.674-20.503 10.772v45.17l15.574 19.851 20 7.259z" fill="#efedef"/></g><path d="m341.275 258.573v37.74l-131.18-53.43v-37.74z" fill="#bbec6c"/><path d="m341.275 175.673v37.73l-131.18-53.43v-37.73z" fill="#bbec6c"/><path d="m245.669 154.367c0-6.027 3.028-11.342 7.641-14.523l-43.215-17.602v37.73l35.574 14.489z" fill="#a2e62e"/><path d="m336.765 340.873c-1.42.86-3.08 1.36-4.86 1.36h-112.45c-5.17 0-9.36-4.19-9.36-9.37v-44.81z" fill="#bbec6c"/><path d="m245.669 336.174v-33.287l-35.574-14.834v44.81c0 5.18 4.19 9.37 9.36 9.37h28.439c-1.385-1.633-2.225-3.745-2.225-6.059z" fill="#a2e62e"/></g></g><path d="m402.907 351.547 4.954 15.247c1.008 3.103 3.9 5.205 7.164 5.205h16.032c7.297 0 10.33 9.337 4.427 13.626l-12.97 9.423c-2.64 1.918-3.745 5.318-2.736 8.421l4.954 15.247c2.255 6.94-5.688 12.71-11.591 8.421l-12.97-9.423c-2.64-1.918-6.215-1.918-8.855 0l-12.97 9.423c-5.903 4.289-13.846-1.482-11.591-8.421l4.954-15.247c1.008-3.103-.096-6.503-2.736-8.421l-12.97-9.423c-5.903-4.289-2.869-13.626 4.427-13.626h16.032c3.263 0 6.155-2.101 7.164-5.205l4.954-15.247c2.255-6.94 12.072-6.94 14.327 0z" fill="#fef056"/></g><path d="m245.669 219.632-35.574-14.489v37.74l35.574 14.489z" fill="#a2e62e"/><path d="m133.896 358.06-37.474-15.626v44.81c0 5.18 4.19 9.37 9.36 9.37h28.114z" fill="#fe646f"/><path d="m133.896 275.754-37.475-15.264v37.74l37.475 15.264z" fill="#fe646f"/></g><g><path d="m113.217 117.804c1.417 1.222 3.16 1.82 4.895 1.82 2.106 0 4.2-.882 5.683-2.602l38.072-44.163 6.473 7.505c2.705 3.136 7.441 3.485 10.578.781 3.137-2.706 3.486-7.441.781-10.578l-6.473-7.504c-2.85-3.305-6.987-5.2-11.351-5.2-4.364 0-8.501 1.895-11.352 5.2l-38.088 44.163c-2.704 3.137-2.355 7.873.782 10.578z"/><path d="m227.466 364.733c-4.142 0-7.5 3.358-7.5 7.5v15.961l-116.182-47.321v-28.977l72.776 29.642c.927.377 1.884.556 2.827.556 2.959 0 5.763-1.763 6.948-4.673 1.563-3.836-.281-8.212-4.117-9.775l-78.434-31.946v-21.537l73.479 29.928c.927.377 1.884.556 2.827.556 2.959 0 5.763-1.763 6.948-4.673 1.563-3.836-.281-8.212-4.117-9.775l-79.137-32.232v-28.978l73.504 29.938c.926.377 1.884.556 2.827.556 2.959 0 5.763-1.763 6.948-4.673 1.563-3.836-.281-8.212-4.117-9.775l-79.163-32.243v-21.537l71.43 29.093c.927.377 1.884.556 2.827.556 2.959 0 5.763-1.763 6.948-4.673 1.563-3.836-.281-8.212-4.117-9.775l-59.811-24.361h59.031c4.142 0 7.5-3.358 7.5-7.5s-3.358-7.5-7.5-7.5l-99.479-.003 22.307-25.865c2.705-3.137 2.355-7.873-.781-10.578-3.137-2.704-7.872-2.355-10.578.781l-22.325 25.886c-3.876 4.494-4.749 10.637-2.277 16.032 2.471 5.396 7.693 8.747 13.627 8.747h8.197v208.635c0 9.3 7.566 16.866 16.866 16.866h30.482v21.899c0 7.028 5.717 12.745 12.745 12.745h5.498v61.446c0 4.142 3.358 7.5 7.5 7.5s7.5-3.358 7.5-7.5v-61.446h5.498c7.028 0 12.745-5.717 12.745-12.745v-21.899h30.484c9.3 0 16.866-7.566 16.866-16.866v-18.497c0-4.142-3.358-7.5-7.5-7.5zm-123.682 25.997v-33.661l87.225 35.527h-10.892-36.485-37.982c-1.029 0-1.866-.837-1.866-1.866zm68.834 36.51h-21.485v-19.644h21.485z"/><path d="m445.353 374.886c-2.05-6.31-7.662-10.387-14.296-10.387l-16.063-.023-4.954-15.247c-2.05-6.31-7.662-10.387-14.296-10.387s-12.246 4.077-14.296 10.387l-4.985 15.27h-16.033c-6.634 0-12.246 4.077-14.296 10.387s.093 12.906 5.46 16.806l12.982 9.46-4.954 15.247c-2.05 6.31.093 12.907 5.46 16.807 5.367 3.899 12.303 3.899 17.672 0l5.489-3.977v2.49c0 15.978-12.999 28.977-28.977 28.977s-28.977-12.999-28.977-28.977v-81.987h1.618c9.3 0 16.866-7.566 16.866-16.866v-208.634h8.197c5.934 0 11.156-3.352 13.627-8.747s1.599-11.538-2.276-16.033l-45.709-53c-2.706-3.137-7.441-3.486-10.578-.781-3.137 2.706-3.486 7.441-.781 10.578l45.689 52.982-162.522-.003 81.254-94.233 14.577 16.903c2.705 3.137 7.441 3.486 10.578.782 3.137-2.705 3.487-7.441.782-10.578l-14.577-16.903c-2.85-3.304-6.987-5.199-11.351-5.199s-8.501 1.895-11.351 5.199l-81.288 94.254c-3.875 4.494-4.748 10.637-2.276 16.032s7.693 8.747 13.628 8.747h8.197v208.634c0 9.3 7.566 16.866 16.866 16.866h30.482v21.899c0 7.028 5.717 12.745 12.745 12.745h5.498v119.814c0 4.142 3.358 7.5 7.5 7.5s7.5-3.358 7.5-7.5v-119.813h5.498c7.028 0 12.745-5.717 12.745-12.745v-21.899h13.864v81.987c0 24.249 19.728 43.977 43.977 43.977s43.977-19.728 43.977-43.977v-2.502l5.489 3.988c2.684 1.95 5.759 2.924 8.835 2.924s6.152-.975 8.836-2.925c5.367-3.9 7.51-10.497 5.46-16.806l-4.942-15.284 12.97-9.423c5.367-3.9 7.51-10.496 5.46-16.806zm-227.761-158.587 24.853 10.122c.926.377 1.884.556 2.827.556 2.959 0 5.763-1.763 6.948-4.673 1.563-3.836-.281-8.212-4.117-9.775l-30.511-12.427v-28.977l116.182 47.321v28.978l-53.709-21.876c-3.834-1.563-8.213.28-9.775 4.117-1.563 3.836.281 8.212 4.117 9.775l59.367 24.181v21.537l-116.182-47.321zm116.183-14.049-116.182-47.321v-21.537l116.182 47.321zm-116.183 51.783 116.182 47.321v28.977l-116.182-47.321zm116.183-89.516-98.906-40.284h98.906zm-116.183 168.35v-33.661l87.225 35.527h-85.359c-1.028 0-1.866-.837-1.866-1.866zm68.834 36.51h-21.485v-19.644h21.485zm144.649 10.18-12.97 9.423c-5.285 3.839-7.479 10.593-5.461 16.806l4.954 15.248c.002.007.005.015.007.021-.012.01-.025.019-.038.027-.006-.004-.012-.008-.019-.013l-12.969-9.422c-.433-.315-.881-.594-1.336-.857v-13.1c0-4.142-3.358-7.5-7.5-7.5s-7.5 3.358-7.5 7.5v13.1c-.455.263-.903.542-1.335.856l-12.97 9.423c-.006.005-.013.009-.019.013-.013-.008-.026-.018-.038-.027.002-.007.004-.014.007-.022l4.954-15.248c2.019-6.213-.176-12.967-5.46-16.806l-12.971-9.424c-.006-.004-.012-.009-.018-.013.004-.015.009-.03.015-.044h.022 16.032c6.533 0 12.278-4.174 14.296-10.387l4.954-15.247c.002-.008.005-.015.007-.022h.047c.002.007.005.014.007.022l4.954 15.247c2.019 6.213 7.764 10.388 14.296 10.388h16.032.022c.006.014.011.029.015.044-.004.005-.01.009-.017.014z"/></g></g></svg>