<?xml version="1.0" encoding="UTF-8"?>
<!DOCTYPE svg PUBLIC "-//W3C//DTD SVG 1.1//EN" "http://www.w3.org/Graphics/SVG/1.1/DTD/svg11.dtd">
<svg xmlns="http://www.w3.org/2000/svg" version="1.1" width="512px" height="512px" xmlns:xlink="http://www.w3.org/1999/xlink">
    <g>
        <rect x="8" y="24" width="144" height="464" fill="#ff6a7f" stroke="#000" stroke-width="16" stroke-linejoin="round" stroke-dasharray="424 32 1000" stroke-linecap="round"/>
        <circle cx="80" cy="400" r="32" fill="#fff" stroke="#000" stroke-width="16"/>
        <path d="M 64 368 c 64 0 64 64 0 64 c 40 0 40 -64 0 -64 z" fill="#0004" stroke-width="16"/>
        <rect x="40" y="68" width="80" height="190" fill="#fff" stroke="#000" stroke-width="16" stroke-linejoin="round" />
        <line x1="40" y1="128" x2="120" y2="100" fill="#fff" stroke="#000" stroke-width="16" />
        <line x1="40" y1="178" x2="120" y2="150" fill="#fff" stroke="#000" stroke-width="16" />
        <line x1="40" y1="228" x2="120" y2="200" fill="#fff" stroke="#000" stroke-width="16" />
        <rect x="100" y="68" width="20" height="190" fill="#0004" />
    </g>
    <g transform="translate(176)">
        <rect x="8" y="24" width="144" height="464" fill="#7fc3ff" stroke="#000" stroke-width="16" stroke-linejoin="round" stroke-dasharray="220 32 1000" stroke-linecap="round"/>
        <circle cx="80" cy="400" r="32" fill="#fff" stroke="#000" stroke-width="16"/>
        <path d="M 64 368 c 64 0 64 64 0 64 c 40 0 40 -64 0 -64 z" fill="#0004" stroke-width="16"/>
        <rect x="40" y="68" width="80" height="190" fill="#fff" stroke="#000" stroke-width="16" stroke-linejoin="round" />
        <line x1="40" y1="128" x2="120" y2="100" fill="#fff" stroke="#000" stroke-width="16" />
        <line x1="40" y1="178" x2="120" y2="150" fill="#fff" stroke="#000" stroke-width="16" />
        <line x1="40" y1="228" x2="120" y2="200" fill="#fff" stroke="#000" stroke-width="16" />
        <rect x="100" y="68" width="20" height="190" fill="#0004" />
    </g>
    <g transform="translate(352)">
        <rect x="8" y="24" width="144" height="464" fill="#ffdf00" stroke="#000" stroke-width="16" stroke-linejoin="round" stroke-dasharray="896 32 1000" stroke-linecap="round"/>
        <circle cx="80" cy="400" r="32" fill="#fff" stroke="#000" stroke-width="16"/>
        <path d="M 64 368 c 64 0 64 64 0 64 c 40 0 40 -64 0 -64 z" fill="#0004" stroke-width="16"/>
        <rect x="40" y="68" width="80" height="190" fill="#fff" stroke="#000" stroke-width="16" stroke-linejoin="round" />
        <line x1="40" y1="128" x2="120" y2="100" fill="#fff" stroke="#000" stroke-width="16" />
        <line x1="40" y1="178" x2="120" y2="150" fill="#fff" stroke="#000" stroke-width="16" />
        <line x1="40" y1="228" x2="120" y2="200" fill="#fff" stroke="#000" stroke-width="16" />
        <rect x="100" y="68" width="20" height="190" fill="#0004" />
    </g>
</svg>