<?xml version="1.0" encoding="UTF-8"?>
<!DOCTYPE svg PUBLIC "-//W3C//DTD SVG 1.1//EN" "http://www.w3.org/Graphics/SVG/1.1/DTD/svg11.dtd">
<svg xmlns="http://www.w3.org/2000/svg" version="1.1" width="512px" height="512px" style="shape-rendering:geometricPrecision; text-rendering:geometricPrecision; image-rendering:optimizeQuality; fill-rule:evenodd; clip-rule:evenodd" xmlns:xlink="http://www.w3.org/1999/xlink">
<g><path style="opacity:0.977" fill="#010102" d="M 232.5,-0.5 C 247.833,-0.5 263.167,-0.5 278.5,-0.5C 328.601,4.55385 373.601,22.3872 413.5,53C 416.677,57.4133 417.344,62.2466 415.5,67.5C 411.253,70.2544 406.587,71.0877 401.5,70C 339.716,23.5915 271.049,9.2582 195.5,27C 117.886,49.6137 64.0528,98.4471 34,173.5C 9.87062,244.362 16.204,312.362 53,377.5C 65.3774,397.722 80.544,415.722 98.5,431.5C 113.991,371.684 150.991,331.851 209.5,312C 267.556,297.14 319.223,309.14 364.5,348C 388.168,371.718 404.501,399.384 413.5,431C 474.142,373.423 499.308,302.923 489,219.5C 484.058,188.335 473.391,159.335 457,132.5C 455.608,127.093 456.774,122.426 460.5,118.5C 465.229,116.747 469.563,117.413 473.5,120.5C 494.767,154.968 507.434,192.301 511.5,232.5C 511.5,247.833 511.5,263.167 511.5,278.5C 499.079,375.221 449.413,445.387 362.5,489C 335.552,500.902 307.552,508.402 278.5,511.5C 263.167,511.5 247.833,511.5 232.5,511.5C 135.779,499.079 65.6128,449.413 22,362.5C 10.0981,335.551 2.59809,307.551 -0.5,278.5C -0.5,263.167 -0.5,247.833 -0.5,232.5C 11.9281,134.769 62.2614,64.2685 150.5,21C 176.892,9.73692 204.225,2.57026 232.5,-0.5 Z"/></g>
<g><path style="opacity:1" fill="#ebf1f2" d="M 415.5,67.5 C 421.14,72.8054 426.807,78.1388 432.5,83.5C 427.071,92.3008 429.238,98.3008 439,101.5C 441.822,100.725 444.656,100.058 447.5,99.5C 451.576,105.978 455.91,112.311 460.5,118.5C 456.774,122.426 455.608,127.093 457,132.5C 473.391,159.335 484.058,188.335 489,219.5C 499.308,302.923 474.142,373.423 413.5,431C 404.501,399.384 388.168,371.718 364.5,348C 319.223,309.14 267.556,297.14 209.5,312C 150.991,331.851 113.991,371.684 98.5,431.5C 80.544,415.722 65.3774,397.722 53,377.5C 16.204,312.362 9.87062,244.362 34,173.5C 64.0528,98.4471 117.886,49.6137 195.5,27C 271.049,9.2582 339.716,23.5915 401.5,70C 406.587,71.0877 411.253,70.2544 415.5,67.5 Z"/></g>
<g><path style="opacity:0.949" fill="#040404" d="M 447.5,99.5 C 444.656,100.058 441.822,100.725 439,101.5C 429.238,98.3008 427.071,92.3008 432.5,83.5C 437.714,80.588 442.714,80.9214 447.5,84.5C 450.1,89.4982 450.1,94.4982 447.5,99.5 Z"/></g>
<g><path style="opacity:1" fill="#030304" d="M 243.5,105.5 C 298.687,103.984 332.52,129.984 345,183.5C 347.972,222.053 333.472,251.886 301.5,273C 260.005,294.077 222.505,288.577 189,256.5C 165.583,228.076 159.916,196.41 172,161.5C 186.045,130.283 209.879,111.616 243.5,105.5 Z"/></g>
<g><path style="opacity:1" fill="#cdccf2" d="M 244.5,125.5 C 276.054,122.945 300.221,134.945 317,161.5C 332.728,195.862 326.561,225.695 298.5,251C 262.202,273.994 229.368,269.827 200,238.5C 177.029,202.17 181.195,169.337 212.5,140C 222.311,133.125 232.978,128.292 244.5,125.5 Z"/></g>
<g><path style="opacity:1" fill="#cdccf2" d="M 240.5,325.5 C 287.579,322.464 327.413,337.797 360,371.5C 378.651,393.138 389.984,418.138 394,446.5C 341.305,483.878 282.805,498.045 218.5,489C 181.951,482.935 148.618,469.268 118.5,448C 118.028,435.364 120.528,423.198 126,411.5C 148.599,362.116 186.766,333.449 240.5,325.5 Z"/></g>
</svg>
